<?xml version="1.0" encoding="utf-8"?>
<!-- Generator: Adobe Illustrator 24.3.0, SVG Export Plug-In . SVG Version: 6.00 Build 0)  -->
<svg version="1.1" id="Layer_1" xmlns="http://www.w3.org/2000/svg" xmlns:xlink="http://www.w3.org/1999/xlink" x="0px" y="0px"
	 viewBox="0 0 512 512" style="enable-background:new 0 0 512 512;" xml:space="preserve">
<style type="text/css">
	.st0{fill:#F26522;}
	.st1{fill:#FFFFFF;}
</style>
<g id="XMLID_1_">
	<rect id="XMLID_2_" class="st0" width="512" height="512"/>
	<path id="XMLID_3_" class="st1" d="M211.11,319.96h78.27v-21.32h-54.15v-32.96h49.94v-21.32h-49.94V213.5h54.15v-21.32h-78.27
		V319.96z M394.03,285.18c0-25.53-1.68-31.14-36.05-39.42c-22.02-5.33-22.44-5.75-22.44-20.34c0-11.08,2.95-14.59,19.22-14.59
		c11.08,0,23.57,1.54,34.23,3.79l2.67-20.34c-12.62-2.95-26.09-4.21-37.17-4.21c-32.4,0-43.06,11.5-43.06,34.79
		c0,27.07,4.21,32.96,35.07,39.98c23,5.05,23.43,6.17,23.43,20.34c0,12.34-2.95,15.99-20.34,15.99c-12.62,0-24.13-2.24-36.05-5.89
		l-4.21,18.94c8.42,4.07,25.39,7.72,39.98,7.72C386.88,321.79,394.03,309.3,394.03,285.18z M438.5,237.62
		c0-19.64,9.4-23.43,32.12-23.43c4.07,0,12.48,0.56,18.1,1.68l1.54-19.64c-5.75-1.4-15.01-2.24-22.02-2.24
		c-34.93,0-53.02,10.8-53.02,44.47v46.71c0,22.02,6.59,36.61,39.56,36.61c30.16,0,39.42-15.01,39.42-34.93v-9.26
		c0-22.02-9.4-31.7-32.68-31.7c-8.28,0-16.13,1.12-22.86,3.51v-11.78H438.5z M457.71,266.24c8.42,0,12.91,2.95,12.91,12.06v9.4
		c0,9.82-3.79,14.03-15.99,14.03c-12.06,0-16.13-3.51-16.13-14.03v-17.53C443.97,267.92,450.84,266.24,457.71,266.24z"/>
</g>
</svg>
